<?xml version="1.0" encoding="UTF-8" standalone="no"?>
<!-- Created with Inkscape (http://www.inkscape.org/) -->

<svg
   width="320mm"
   height="393.25mm"
   viewBox="0 0 320 393.25"
   version="1.1"
   id="svg5"
   sodipodi:docname="Gehäuse_clean_2.svg"
   inkscape:version="1.1.1 (c3084ef, 2021-09-22)"
   xmlns:inkscape="http://www.inkscape.org/namespaces/inkscape"
   xmlns:sodipodi="http://sodipodi.sourceforge.net/DTD/sodipodi-0.dtd"
   xmlns="http://www.w3.org/2000/svg"
   xmlns:svg="http://www.w3.org/2000/svg">
  <sodipodi:namedview
     id="namedview55"
     pagecolor="#ffffff"
     bordercolor="#666666"
     borderopacity="1.0"
     inkscape:pageshadow="2"
     inkscape:pageopacity="0.0"
     inkscape:pagecheckerboard="0"
     inkscape:document-units="mm"
     showgrid="true"
     inkscape:zoom="0.48375185"
     inkscape:cx="862.0122"
     inkscape:cy="695.60457"
     inkscape:window-width="1920"
     inkscape:window-height="1027"
     inkscape:window-x="0"
     inkscape:window-y="25"
     inkscape:window-maximized="1"
     inkscape:current-layer="svg5">
    <inkscape:grid
       type="xygrid"
       id="grid1771"
       spacingx="0.13229167"
       spacingy="0.13229167" />
  </sodipodi:namedview>
  <defs
     id="defs2" />
  <g
     id="g1910"
     style="fill:none;stroke:#ff0000;stroke-width:0.199731;stroke-miterlimit:4;stroke-dasharray:none;stroke-opacity:1"
     transform="matrix(1.0013456,0,0,1.0013456,59.865438,61.318173)">
    <circle
       style="fill:none;stroke:#ff0000;stroke-width:0.199731;stroke-miterlimit:4;stroke-dasharray:none;stroke-opacity:1"
       id="path1653"
       cx="22"
       cy="22"
       r="11.843323" />
    <circle
       style="fill:none;stroke:#ff0000;stroke-width:0.199731;stroke-miterlimit:4;stroke-dasharray:none;stroke-opacity:1"
       id="path1653-9"
       cx="52"
       cy="22"
       r="11.843323" />
    <circle
       style="fill:none;stroke:#ff0000;stroke-width:0.199731;stroke-miterlimit:4;stroke-dasharray:none;stroke-opacity:1"
       id="path1653-6"
       cx="82"
       cy="22"
       r="11.843323" />
    <circle
       style="fill:none;stroke:#ff0000;stroke-width:0.199731;stroke-miterlimit:4;stroke-dasharray:none;stroke-opacity:1"
       id="path1653-9-4"
       cx="112"
       cy="22"
       r="11.843323" />
    <circle
       style="fill:none;stroke:#ff0000;stroke-width:0.199731;stroke-miterlimit:4;stroke-dasharray:none;stroke-opacity:1"
       id="path1653-7"
       cx="22"
       cy="52"
       r="11.843323" />
    <circle
       style="fill:none;stroke:#ff0000;stroke-width:0.199731;stroke-miterlimit:4;stroke-dasharray:none;stroke-opacity:1"
       id="path1653-9-5"
       cx="52"
       cy="52"
       r="11.843323" />
    <circle
       style="fill:none;stroke:#ff0000;stroke-width:0.199731;stroke-miterlimit:4;stroke-dasharray:none;stroke-opacity:1"
       id="path1653-6-7"
       cx="82"
       cy="52"
       r="11.843323" />
    <circle
       style="fill:none;stroke:#ff0000;stroke-width:0.199731;stroke-miterlimit:4;stroke-dasharray:none;stroke-opacity:1"
       id="path1653-9-4-2"
       cx="112"
       cy="52"
       r="11.843323" />
    <circle
       style="fill:none;stroke:#ff0000;stroke-width:0.199731;stroke-miterlimit:4;stroke-dasharray:none;stroke-opacity:1"
       id="path1653-4"
       cx="22"
       cy="82"
       r="11.843323" />
    <circle
       style="fill:none;stroke:#ff0000;stroke-width:0.199731;stroke-miterlimit:4;stroke-dasharray:none;stroke-opacity:1"
       id="path1653-9-2"
       cx="52"
       cy="82"
       r="11.843323" />
    <circle
       style="fill:none;stroke:#ff0000;stroke-width:0.199731;stroke-miterlimit:4;stroke-dasharray:none;stroke-opacity:1"
       id="path1653-6-1"
       cx="82"
       cy="82"
       r="11.843323" />
    <circle
       style="fill:none;stroke:#ff0000;stroke-width:0.199731;stroke-miterlimit:4;stroke-dasharray:none;stroke-opacity:1"
       id="path1653-9-4-9"
       cx="112"
       cy="82"
       r="11.843323" />
    <circle
       style="fill:none;stroke:#ff0000;stroke-width:0.199731;stroke-miterlimit:4;stroke-dasharray:none;stroke-opacity:1"
       id="path1653-7-2"
       cx="22"
       cy="112"
       r="11.843323" />
    <circle
       style="fill:none;stroke:#ff0000;stroke-width:0.199731;stroke-miterlimit:4;stroke-dasharray:none;stroke-opacity:1"
       id="path1653-9-5-4"
       cx="52"
       cy="112"
       r="11.843323" />
    <circle
       style="fill:none;stroke:#ff0000;stroke-width:0.199731;stroke-miterlimit:4;stroke-dasharray:none;stroke-opacity:1"
       id="path1653-6-7-5"
       cx="82"
       cy="112"
       r="11.843323" />
    <circle
       style="fill:none;stroke:#ff0000;stroke-width:0.199731;stroke-miterlimit:4;stroke-dasharray:none;stroke-opacity:1"
       id="path1653-9-4-2-8"
       cx="112"
       cy="112"
       r="11.843323" />
  </g>
  <path
     style="fill:none;stroke:#ff0000;stroke-width:0.199535;stroke-linecap:butt;stroke-linejoin:miter;stroke-miterlimit:4;stroke-dasharray:none;stroke-opacity:1"
     d="m 60,197.8962 h 10.000001 v -2.79643 h 20 v 2.79643 H 110 v -2.79643 h 20 v 2.79643 h 20 v -2.79643 h 20.00001 v 2.79643 h 20 v -2.79643 h 20 v 2.79643 H 230 v -2.79643 h 20.00001 v 2.79643 H 260"
     id="path97" />
  <path
     style="fill:none;stroke:#ff0000;stroke-width:0.196352;stroke-linecap:butt;stroke-linejoin:miter;stroke-miterlimit:4;stroke-dasharray:none;stroke-opacity:1"
     d="m 63,2.901824 h 7 l 10e-7,-2.803648 H 90.000003 V 2.8061143 H 110 V 0.098176 h 20 v 2.7079383 h 20.00001 V 0.098176 h 20 v 2.7079383 h 20 V 0.098176 L 199,0 v 28 h 58"
     id="path97-4-5" />
  <path
     style="fill:none;stroke:#ff0000;stroke-width:0.199673;stroke-linecap:butt;stroke-linejoin:miter;stroke-miterlimit:4;stroke-dasharray:none;stroke-opacity:1"
     d="m 60,255.09984 h 10.000001 v 2.80032 h 20.000001 v -2.80032 H 110 v 2.80032 h 20 v -2.80032 h 20.00001 v 2.80032 h 20 v -2.80032 h 20 v 2.80032 l 9.09895,0.0686 -0.0528,-2.83565 10.95385,-0.0333 v 0 H 230 v 0 h 20.00001 v 0 H 260"
     id="path97-3"
     sodipodi:nodetypes="cccccccccccccccccccccccc" />
  <path
     style="fill:none;stroke:#ff0000;stroke-width:0.199673;stroke-linecap:butt;stroke-linejoin:miter;stroke-miterlimit:4;stroke-dasharray:none;stroke-opacity:1"
     d="m 60.114584,392.90626 h 10.000001 v -2.80032 h 20.000001 v 2.80032 h 20.000004 v -2.80032 h 20 v 2.80032 h 20.00001 v -2.80032 h 20 v 2.80032 h 20 v -2.80032 l 9.09895,-0.0686 -0.0528,2.83565 10.95385,0.0333 v 0 h 19.99999 v 0 h 20.00001 v 0 h 9.99999"
     id="path97-3-7"
     sodipodi:nodetypes="cccccccccccccccccccccccc" />
  <path
     style="fill:none;stroke:#ff0000;stroke-width:0.199674;stroke-linecap:butt;stroke-linejoin:miter;stroke-miterlimit:4;stroke-dasharray:none;stroke-opacity:1"
     d="m 60,60.099837 h 10 v 2.800326 H 90.000002 V 60.099837 H 110 v 2.800326 h 20 v -2.800326 h 20 v 2.800326 h 20.00001 v -2.800326 h 20 v 2.800326 h 20 V 60.099837 H 230 v 2.800326 h 20.00001 V 60.099837 H 260"
     id="path97-3-1" />
  <rect
     style="fill:none;fill-rule:evenodd;stroke:#ff0000;stroke-width:0.198388;stroke-miterlimit:4;stroke-dasharray:none;stroke-opacity:1"
     id="rect223"
     width="24.801611"
     height="35.801613"
     x="210.0992"
     y="110.5992" />
  <path
     style="fill:none;stroke:#ff0000;stroke-width:0.201597;stroke-linecap:butt;stroke-linejoin:miter;stroke-miterlimit:4;stroke-dasharray:none;stroke-opacity:1"
     d="m 60.100799,60 v 11.500001 h 2.798402 v 19.5 H 60.100799 V 106 h 2.798402 v 15.00001 H 60.100799 V 136 h 2.798402 v 15.00001 H 60.100799 V 166 h 2.798402 v 19.5 H 60.100799 V 198"
     id="path1074" />
  <path
     style="fill:none;stroke:#ff0000;stroke-width:0.201597;stroke-linecap:butt;stroke-linejoin:miter;stroke-miterlimit:4;stroke-dasharray:none;stroke-opacity:1"
     d="m 317.1008,60 v 11.500001 h 2.79841 l 0.0398,17.46835 M 317.10081,198 v -12.5 h 2.79841 V 166 h -2.79841 v -14.99999 l 0.0147,-4.00001 -19.67163,-0.12363 0.0769,-57.904662 22.3775,0.03845"
     id="path1074-5" />
  <path
     style="fill:none;stroke:#ff0000;stroke-width:0.201597;stroke-linecap:butt;stroke-linejoin:miter;stroke-miterlimit:4;stroke-dasharray:none;stroke-opacity:1"
     d="M 2.899201,60 V 71.500002 H 0.100799 V 90.999999 H 2.899201 V 106 H 0.100799 v 15.00001 h 2.798402 v 15 H 0.100799 v 15 h 2.798402 v 15 H 0.100799 V 185.5 H 2.899201 V 198"
     id="path1074-6" />
  <path
     style="fill:none;stroke:#ff0000;stroke-width:0.201598;stroke-linecap:butt;stroke-linejoin:miter;stroke-miterlimit:4;stroke-dasharray:none;stroke-opacity:1"
     d="m 259.89921,60 v 11.500001 h -2.79841 v 19.500001 h 2.79841 V 106 h -2.79841 v 15.00001 h 2.79841 V 136 h -2.79841 v 15.00001 h 2.79841 V 166 h -2.79841 v 19.5 h 2.79841 V 198"
     id="path1074-8" />
  <path
     style="fill:none;stroke:#ff0000;stroke-width:0.201597;stroke-linecap:butt;stroke-linejoin:miter;stroke-miterlimit:4;stroke-dasharray:none;stroke-opacity:1"
     d="m 60.100799,255 v 11.5 h 2.798402 V 286 h -2.798402 v 15 h 2.798402 v 15 h -2.798402 v 15 h 2.798402 v 15 h -2.798402 v 15 h 2.798402 v 19.5 H 60.100799 V 393"
     id="path1074-51" />
  <path
     style="fill:none;stroke:#ff0000;stroke-width:0.201598;stroke-linecap:butt;stroke-linejoin:miter;stroke-miterlimit:4;stroke-dasharray:none;stroke-opacity:1"
     d="m 259.89921,255 v 11.5 h -2.79841 l 9.2e-4,17.51011 2.79749,0.0756 V 301 v 0 15 0 l -0.0147,26 0.0686,-0.026 v 3.96875 L 259.89923,346 v 15 h -2.79841 v 19.5 h 2.79841 V 393"
     id="path1074-8-3"
     sodipodi:nodetypes="cccccccccccccccccc" />
  <path
     style="fill:none;stroke:#ff0000;stroke-width:0.193193;stroke-linecap:butt;stroke-linejoin:miter;stroke-miterlimit:4;stroke-dasharray:none;stroke-opacity:1"
     d="m 62.903403,198 v 10.5 h -2.806806 l 0,15 h 2.806805 V 236 h -2.806805 l 0,10 h 2.806806 l -10e-7,9"
     id="path4106" />
  <path
     style="fill:none;stroke:#ff0000;stroke-width:0.199451;stroke-linecap:butt;stroke-linejoin:miter;stroke-miterlimit:4;stroke-dasharray:none;stroke-opacity:1"
     d="M 60,197.90027 H 49.500008 v -2.80054 H 34.500006 v 2.80054 H 22 v -2.80054 H 11.999999 v 2.80054 H 3"
     id="path4106-3" />
  <path
     style="fill:none;stroke:#ff0000;stroke-width:0.193193;stroke-linecap:butt;stroke-linejoin:miter;stroke-miterlimit:4;stroke-dasharray:none;stroke-opacity:1"
     d="M 62.903403,60 V 49.500001 h -2.806806 l 0,-15.000002 h 2.806805 V 21.999997 h -2.806805 l 0,-9.999999 h 2.806806 L 62.903402,3"
     id="path4106-8" />
  <path
     style="fill:none;stroke:#ff0000;stroke-width:0.199451;stroke-linecap:butt;stroke-linejoin:miter;stroke-miterlimit:4;stroke-dasharray:none;stroke-opacity:1"
     d="M 60,60.099725 H 49.500015 v 2.800548 H 34.500011 V 60.099725 H 21.999999 v 2.800548 H 11.999998 V 60.099725 H 3"
     id="path4106-3-8" />
  <path
     style="fill:none;stroke:#ff0000;stroke-width:0.193192;stroke-linecap:butt;stroke-linejoin:miter;stroke-miterlimit:4;stroke-dasharray:none;stroke-opacity:1"
     d="m 257.0966,198 v 10.49999 h 2.80681 V 223.5 H 257.0966 V 236 h 2.80681 v 10 h -2.80681 v 9"
     id="path4106-6" />
  <path
     style="fill:none;stroke:#ff0000;stroke-width:0.199451;stroke-linecap:butt;stroke-linejoin:miter;stroke-miterlimit:4;stroke-dasharray:none;stroke-opacity:1"
     d="m 260,197.90029 h 10.49999 v -2.80056 H 285.5 v 2.80056 h 12.50001 v -2.80056 H 308 v 2.80056 h 9"
     id="path4106-3-3" />
  <path
     style="fill:none;stroke:#ff0000;stroke-width:0.193194;stroke-linecap:butt;stroke-linejoin:miter;stroke-miterlimit:4;stroke-dasharray:none;stroke-opacity:1"
     d="M 257.0966,60 V 49.500006 h 2.80681 V 34.500008 L 257,34.5 V 28"
     id="path4106-8-2" />
  <path
     style="fill:none;stroke:#ff0000;stroke-width:0.199452;stroke-linecap:butt;stroke-linejoin:miter;stroke-miterlimit:4;stroke-dasharray:none;stroke-opacity:1"
     d="m 260,60.099726 h 10.49999 v 2.800548 H 285.5 v -2.800548 h 12.50001 v 2.800548 h 10 V 60.099726 H 317"
     id="path4106-3-8-5" />
</svg>
